<?xml version="1.0" encoding="utf-8"?>
<!-- Generator: Adobe Illustrator 16.0.4, SVG Export Plug-In . SVG Version: 6.00 Build 0)  -->
<!DOCTYPE svg PUBLIC "-//W3C//DTD SVG 1.1//EN" "http://www.w3.org/Graphics/SVG/1.1/DTD/svg11.dtd">
<svg version="1.1" id="Layer_1" xmlns="http://www.w3.org/2000/svg" xmlns:xlink="http://www.w3.org/1999/xlink" x="0px" y="0px"
	 width="400px" height="94px" viewBox="0 0 400 94" style="enable-background:new 0 0 400 94;" xml:space="preserve">
<style type="text/css">
<![CDATA[
	.st0{fill:#FCFCFF;}
	.st1{fill:#76CDFA;}
]]>
</style>
<g>
	<path class="st0" d="M0.3516,32.3569c0-9.6431,1.3408-18.0093,11.8145-18.0093c6.1948,0,8.6855,1.4688,10.1543,3.9595V1h4.6621
		v48.9199l-3.7041,0.3184l-0.4468-4.1504c-1.4692,2.6816-4.2148,4.4707-10.8569,4.4707
		C1.5649,50.5586,0.3516,42.0645,0.3516,32.3569z M22.3203,32.4844c0-7.791-0.5747-13.7939-9.0684-13.7939
		c-7.2808,0-8.2388,5.939-8.2388,13.7939c0,7.8555,0.8945,13.9224,8.2388,13.9224C21.6816,46.4067,22.3203,40.2764,22.3203,32.4844z
		"/>
	<path class="st0" d="M33.8789,15.1777l3.6401-0.2554l0.5107,4.2148c1.2773-2.4907,3.9595-4.5342,9.771-4.5342v4.4067
		c-8.813,0.1914-9.2598,6.769-9.2598,13.6665v17.4351h-4.6621V15.1777z"/>
	<path class="st0" d="M49.2056,32.4209c0-10.793,2.2993-18.0732,13.2832-18.0732c11.6875,0,11.751,7.5356,11.6875,20.0532H53.6758
		c0.1914,7.5996,1.6606,12.0703,9.0049,12.0703c4.5342,0,6.8335-1.0859,8.813-2.0439l1.8521,3.6401
		c-2.4902,1.3408-5.6836,2.4912-10.8569,2.4912C51.1216,50.5586,49.2056,43.4053,49.2056,32.4209z M53.6758,30.1216h16.1577
		c-0.1914-6.9609-0.1279-11.6226-7.4082-11.6226C55.5278,18.499,53.9316,22.9692,53.6758,30.1216z"/>
	<path class="st0" d="M76.6021,14.9224h4.6621l7.3442,27.9722l7.3442-27.9722h4.2788l7.2803,27.8447l7.4082-27.8447h4.4067
		l-9.5796,35.4448h-4.4062l-7.3442-27.5259l-7.2808,27.5259h-4.5342L76.6021,14.9224z"/>
	<path class="st0" d="M122.6465,1h9.5791v15.4551c1.5332-1.98,4.1514-3.1934,9.8354-3.1934c8.877,0,10.6011,5.6201,10.6011,13.1558
		v23.6938h-9.707V28.8447c0-4.2788-0.5112-6.3867-4.6621-6.3867c-5.1089,0-6.0029,2.2993-6.0029,7.7275v19.9258h-9.6436V1z"/>
	<path class="st0" d="M156.3018,39.1904c0-10.1543,5.6201-13.0283,18.5845-13.0283h1.2773c-0.1919-3.0015-1.2139-4.2788-4.79-4.2788
		c-4.0874,0-7.0889,0.894-9.1968,1.916l-3.8955-7.7915c3.1934-1.6602,7.6641-2.8735,14.1782-2.8735
		c9.9624,0,13.0278,3.3848,13.0278,12.3257v13.4751c0,2.2349,0.1914,2.8101,2.4907,2.8101v8.3662
		c-1.0215,0.127-1.9795,0.127-2.8735,0.127c-4.5981,0-6.3228-0.4473-7.4082-3.001c-1.916,2.2998-4.79,3.3213-9.9629,3.3213
		C158.2812,50.5586,156.3018,45.7046,156.3018,39.1904z M176.1636,36.3169v-3.3213h-1.2139c-7.1528,0-9.4512,0.958-9.4512,5.1089
		c0,3.1934,1.1494,4.5347,4.4697,4.5347C173.7363,42.6392,176.1636,41.2979,176.1636,36.3169z"/>
	<path class="st0" d="M192.0645,14.4751l7.7275-0.6387l0.7021,2.874c1.6611-2.1714,4.4707-3.4487,10.666-3.4487
		c5.8115,0,7.6631,1.5967,8.4932,3.5122c1.7891-2.1709,4.8535-3.5122,11.2402-3.5122c8.9414,0,10.1543,5.6201,10.1543,13.1558
		v23.6938h-9.5801V28.8447c0-4.2788-0.2549-6.3867-4.4062-6.3867c-4.917,0-5.7471,2.2993-5.7471,7.7275v19.9258h-9.5801V28.8447
		c0-4.2788-0.2549-6.3867-4.3428-6.3867c-4.9814,0-5.8115,2.3633-5.8115,7.7275v19.9258h-9.5156V14.4751z"/>
	<path class="st0" d="M246.0283,14.4751l7.7275-0.6387l0.7021,2.874c1.6602-2.1714,4.4707-3.4487,10.665-3.4487
		c5.8115,0,7.6641,1.5967,8.4941,3.5122c1.7881-2.1709,4.8535-3.5122,11.2402-3.5122c8.9404,0,10.1543,5.6201,10.1543,13.1558
		v23.6938h-9.5801V28.8447c0-4.2788-0.2549-6.3867-4.4062-6.3867c-4.918,0-5.748,2.2993-5.748,7.7275v19.9258h-9.5791V28.8447
		c0-4.2788-0.2559-6.3867-4.3428-6.3867c-4.9814,0-5.8115,2.3633-5.8115,7.7275v19.9258h-9.5156V14.4751z"/>
	<path class="st0" d="M298.5859,31.9102c0-11.3037,3.1299-18.6484,15.9668-18.6484c12.9004,0,15.9023,7.4722,15.9023,18.6484
		c0,11.6226-3.002,18.7754-15.9023,18.7754C301.8438,50.6855,298.5859,43.3418,298.5859,31.9102z M320.7471,32.229
		c0-6.3223-0.6387-9.9624-6.1943-9.9624c-5.5566,0-6.1953,3.6401-6.1953,9.9624c0,6.2588,0.6387,10.0273,6.1953,10.0273
		C320.1084,42.2563,320.7471,38.4878,320.7471,32.229z"/>
	<path class="st0" d="M334.541,14.4751l7.7275-0.6387l0.7021,2.874c1.7246-2.1714,4.79-3.4487,10.9844-3.4487
		c8.877,0,10.6016,5.6201,10.6016,13.1558v23.6938h-9.707V28.8447c0-4.2788-0.5107-6.3867-4.6631-6.3867
		c-5.1719,0-6.002,2.4907-6.002,7.7275v19.9258h-9.6436V14.4751z"/>
	<path class="st0" d="M368.4521,31.8462c0-10.0903,1.6602-18.5845,12.5166-18.5845c5.1094,0,7.5996,0.8301,9.3242,2.7461V1H400
		v48.791l-7.7275,0.6396l-0.7666-3.3213c-1.915,2.2344-5.0449,3.4492-10.9844,3.4492
		C369.793,50.5586,368.4521,41.8091,368.4521,31.8462z M390.293,32.0376c0-6.3862-0.7021-9.835-6.4502-9.835
		c-4.8535,0-5.6846,3.2573-5.6846,9.835c0,6.6421,0.7031,10.1543,5.6846,10.1543C389.4629,42.1919,390.293,38.6157,390.293,32.0376z
		"/>
	<path class="st1" d="M0,64.7695h13.0269v2.8418H3.0972v7.375h9.3867v2.8105H3.0972v10.6309H0V64.7695z"/>
	<path class="st1" d="M14.9116,81.8516V70.708h3.0015v10.9834c0,2.873,0.2876,4.3105,3.4805,4.3105
		c3.0972,0,3.416-1.4375,3.416-4.3105V70.708h2.9375v11.1436c0,4.6289-1.0215,6.832-6.4175,6.832
		C16.061,88.6836,14.9116,86.4805,14.9116,81.8516z"/>
	<path class="st1" d="M35.0601,88.4609c-3.0972,0-4.0552-1.0547-4.0552-4.1836V63.875h3.0015v20.0518
		c0,1.4365,0.0957,1.8838,2.1074,1.8838v2.6172C35.9541,88.4609,35.6665,88.4609,35.0601,88.4609z"/>
	<path class="st1" d="M42.5317,88.4609c-3.0972,0-4.0547-1.0547-4.0547-4.1836V63.875h3.0015v20.0518
		c0,1.4365,0.0957,1.8838,2.1069,1.8838v2.6172C43.4258,88.4609,43.1387,88.4609,42.5317,88.4609z"/>
	<path class="st1" d="M50.7383,86.7676l1.5327-2.3936c1.1812,0.7021,3.2246,1.6279,6.0981,1.6279
		c3.0654,0,4.502-1.3086,4.502-3.5762c0-2.6816-1.4048-3.3848-5.2041-4.9492c-3.9272-1.627-6.0347-3.0977-6.0347-6.8008
		c0-3.8311,2.4263-6.1621,7.0884-6.1621c2.7456,0,4.6294,0.5107,6.2896,1.2773l-1.3086,2.6504
		c-1.2139-0.5752-2.7783-1.0215-4.9175-1.0215c-2.8735,0-4.1187,1.2441-4.1187,3.1602c0,2.2031,0.9897,2.8105,4.3745,4.3105
		c4.8208,2.0439,6.8643,3.2246,6.8643,7.5039c0,3.8945-2.4902,6.2891-7.4712,6.2891
		C54.8569,88.6836,52.3667,87.7891,50.7383,86.7676z"/>
	<path class="st1" d="M67.1191,70.708h2.8096l0.479-4.6934l2.4263-0.543v5.2363h4.1509v2.6182H72.834V83.416
		c0,1.5645,0.2236,2.3945,2.1714,2.3945h1.9795v2.6172c-0.4468,0.0332-1.9155,0.0967-2.2988,0.0967
		c-3.959,0-4.853-1.501-4.853-4.8213v-10.377h-2.7139V70.708z"/>
	<path class="st1" d="M78.6143,83.0967c0-5.1406,3.0327-6.4814,9.0996-6.4814h0.7344c-0.064-2.3311-0.5752-3.5117-3.1289-3.5117
		c-1.8521,0-3.353,0.4473-4.3745,0.957l-1.2451-2.458c1.3726-0.7021,3.3843-1.2451,5.9067-1.2451
		c4.7256,0,5.7793,1.9473,5.7793,6.2578v7.4707c0,1.373,0.0952,1.7246,1.3726,1.7246v2.6172
		c-0.2554,0.0332-0.5425,0.0332-0.8301,0.0332c-1.916,0-2.7139-0.3838-3.0332-1.6934c-1.0537,1.4062-2.6821,1.8535-5.0127,1.8535
		C79.9233,88.6211,78.6143,86.5449,78.6143,83.0967z M88.4482,81.5645v-2.4912h-0.7026c-4.4058,0-6.29,0.5107-6.29,3.7354
		c0,2.5547,1.0859,3.3203,3.0332,3.3203C86.6279,86.1289,88.4482,85.2041,88.4482,81.5645z"/>
	<path class="st1" d="M94.6436,79.5195c0-5.5859,1.1812-9.1309,7.0244-9.1309c1.8193,0,3.1929,0.3193,4.3423,0.8945l-1.2778,2.5859
		c-0.8936-0.4473-1.8193-0.6709-2.937-0.6709c-3.3203,0-4.1191,2.2041-4.1191,6.3857c0,4.2148,0.7344,6.4814,4.1509,6.4814
		c1.373,0,2.395-0.4141,3.2886-0.8291l1.1494,2.2988c-1.5327,0.7656-2.8096,1.1484-4.7568,1.1484
		C95.8564,88.6836,94.6436,85.1406,94.6436,79.5195z"/>
	<path class="st1" d="M108.4058,63.875h2.937v15.5811l6.1304-8.748h3.2251l-5.332,7.5039l5.7466,10.2158h-3.1606l-4.5654-7.8223
		l-2.0439,2.9697v4.8525h-2.937V63.875z"/>
	<path class="st1" d="M128.6812,64.7695h6.7046c7.4395,0,9.3237,3.832,9.3237,11.8135c0,8.1416-1.8198,11.8447-9.4512,11.8447
		h-6.5771V64.7695z M135.4819,85.7148c5.0767,0,6.0981-2.9062,6.0981-9.0996c0-6.1309-0.9893-9.0039-6.0342-9.0039h-3.7681v18.1035
		H135.4819z"/>
	<path class="st1" d="M146.562,79.5195c0-5.4912,1.3096-9.1309,6.9609-9.1309c6.0986,0,6.1304,3.8955,6.0986,10.5049h-10.2173
		c0.1274,3.3525,0.894,5.1719,4.2144,5.1719c2.2988,0,3.4482-0.542,4.502-1.0215l1.1489,2.2988
		c-1.3726,0.7344-3.0645,1.3096-5.8105,1.3096C147.6157,88.6523,146.562,85.1074,146.562,79.5195z M149.436,78.2441h7.4077
		c-0.0645-3.1934-0.0962-5.2051-3.3848-5.2051C150.2983,73.0391,149.5635,74.9863,149.436,78.2441z"/>
	<path class="st1" d="M160.5483,70.708h3.1294l4.0547,13.8564l4.0547-13.8564h3.002l-5.4922,17.8486h-3.2559L160.5483,70.708z"/>
	<path class="st1" d="M175.4287,79.5195c0-5.4912,1.3091-9.1309,6.9604-9.1309c6.0986,0,6.1304,3.8955,6.0986,10.5049h-10.2173
		c0.1274,3.3525,0.894,5.1719,4.2148,5.1719c2.2988,0,3.4478-0.542,4.5015-1.0215l1.1494,2.2988
		c-1.3726,0.7344-3.0654,1.3096-5.811,1.3096C176.4824,88.6523,175.4287,85.1074,175.4287,79.5195z M178.3022,78.2441h7.4077
		c-0.0645-3.1934-0.0957-5.2051-3.3848-5.2051C179.1646,73.0391,178.4302,74.9863,178.3022,78.2441z"/>
	<path class="st1" d="M195.1934,88.4609c-3.0967,0-4.0547-1.0547-4.0547-4.1836V63.875h3.001v20.0518
		c0,1.4365,0.0962,1.8838,2.1074,1.8838v2.6172C196.0879,88.4609,195.7998,88.4609,195.1934,88.4609z"/>
	<path class="st1" d="M197.6206,79.5195c0-5.2354,1.0859-9.1309,7.0884-9.1309c6.0342,0,7.0879,3.959,7.0879,9.1309
		c0,5.333-1.0537,9.1641-7.0879,9.1641C198.77,88.6836,197.6206,84.8213,197.6206,79.5195z M208.7959,79.6162
		c0-3.6719-0.3838-6.418-4.0869-6.418c-3.6719,0-4.0869,2.7461-4.0869,6.418c0,3.6729,0.415,6.4492,4.0869,6.4492
		C208.4121,86.0654,208.7959,83.2891,208.7959,79.6162z"/>
	<path class="st1" d="M214.3848,70.8672l2.3945-0.1914l0.2236,1.7881c0.7656-1.2139,2.2979-2.0752,5.459-2.0752
		c5.2686,0,5.875,4.3105,5.875,9.1309c0,4.8867-0.7021,9.1328-5.9707,9.1328c-2.9375,0-4.1826-0.6699-4.9805-1.8203v6.6406h-3.001
		V70.8672z M225.3359,79.6484c0-3.7676-0.4473-6.4502-3.7676-6.4502c-3.832,0-4.1826,2.7139-4.1826,6.4502
		c0,3.7354,0.3193,6.3857,4.1826,6.3857C224.8574,86.0342,225.3359,83.4473,225.3359,79.6484z"/>
	<path class="st1" d="M230.2539,79.5195c0-5.4912,1.3096-9.1309,6.9609-9.1309c6.0986,0,6.1309,3.8955,6.0986,10.5049h-10.2178
		c0.1279,3.3525,0.8945,5.1719,4.2148,5.1719c2.2988,0,3.4482-0.542,4.502-1.0215l1.1494,2.2988
		c-1.373,0.7344-3.0654,1.3096-5.8115,1.3096C231.3076,88.6523,230.2539,85.1074,230.2539,79.5195z M233.1279,78.2441h7.4072
		c-0.0635-3.1934-0.0957-5.2051-3.3848-5.2051C233.9902,73.0391,233.2559,74.9863,233.1279,78.2441z"/>
	<path class="st1" d="M245.8682,70.8672l2.3633-0.1914l0.2871,2.0117c0.6709-1.2129,2.0117-2.1396,4.917-2.1396v2.8096
		c-4.3105,0.0967-4.5664,3.0342-4.5664,6.2588v8.8115h-3.001V70.8672z"/>
</g>
<g>
</g>
<g>
</g>
<g>
</g>
<g>
</g>
<g>
</g>
<g>
</g>
<g>
</g>
<g>
</g>
<g>
</g>
<g>
</g>
<g>
</g>
<g>
</g>
<g>
</g>
<g>
</g>
<g>
</g>
</svg>
